<svg id="Слой_1" data-name="Слой 1" xmlns="http://www.w3.org/2000/svg" width="141.021" height="43" viewBox="0 0 141.02074 43"><defs><style>.cls-1{fill:#a8ad00}</style></defs><title>logo-dark</title><path class="cls-1" d="M51.71 14.325a4.551 4.551 0 0 0-1.05-2.052 7 7 0 0 0-1.947-1.531 9.645 9.645 0 0 0-2.497-.929 11.016 11.016 0 0 0-2.797-.259q-.176-.316-.37-.62-.193-.3-.402-.587-.207-.285-.43-.558c-.097-.117-.198-.23-.298-.343l.04-.03q.056-.042.111-.086l.028-.023.016-.013.065-.053.104-.09q.066-.058.128-.118l.012-.012.005-.004.007-.008.097-.096q.059-.06.114-.122l.05-.058.022-.025.035-.041c.022-.026.038-.054.06-.081.045-.058.094-.116.135-.176.016-.022.027-.046.042-.069.011-.017.026-.033.037-.05.016-.026.027-.053.042-.078q.069-.117.125-.235c.013-.025.03-.05.041-.076.008-.019.012-.038.02-.057.011-.027.026-.052.036-.078.021-.058.035-.117.052-.175.009-.029.023-.058.03-.087l.006-.03a2.28 2.28 0 0 0 .061-.372l.024-.312-.004.024a2.143 2.143 0 0 0 .003-.35 2.292 2.292 0 0 0-.58-1.33 3.908 3.908 0 0 0-1.319-.953 6.605 6.605 0 0 0-1.812-.524 8.931 8.931 0 0 0-2.113-.05 9.52 9.52 0 0 0-1.052.155 9.095 9.095 0 0 0-.981.259 8.348 8.348 0 0 0-.9.35 7.263 7.263 0 0 0-.803.43q-.361-.091-.731-.17-.367-.077-.741-.142-.372-.064-.75-.115c-.228-.03-.689-.081-.689-.081a2.558 2.558 0 0 0-.217-.917 2.24 2.24 0 0 0-.86-.913 3.9 3.9 0 0 0-1.291-.405 6.433 6.433 0 0 0-1.63-.015 8.167 8.167 0 0 0-1.698.378 7.928 7.928 0 0 0-1.506.685 5.893 5.893 0 0 0-1.195.917 3.357 3.357 0 0 0-.742 1.084q-.37.1-.735.212-.365.11-.725.231-.36.12-.715.25t-.706.27a2.1 2.1 0 0 0-.454-.28 2.861 2.861 0 0 0-.562-.188 3.895 3.895 0 0 0-.659-.089 5.202 5.202 0 0 0-.745.017 7.02 7.02 0 0 0-1.6.348 8.225 8.225 0 0 0-1.51.689 7.282 7.282 0 0 0-1.29.952 4.83 4.83 0 0 0-.924 1.146 3.005 3.005 0 0 0-.258.598 2.098 2.098 0 0 0-.093.562 1.61 1.61 0 0 0 .07.513 3.045 3.045 0 0 0 .225.456q-.256.223-.504.454-.252.233-.498.474-.246.241-.485.49-.24.25-.474.507l-.19-.002a6.155 6.155 0 0 0-1.704.321 8.527 8.527 0 0 0-1.687.778 9.043 9.043 0 0 0-1.526 1.144A7.31 7.31 0 0 0 2.899 14.4a4.505 4.505 0 0 0-.632 1.51 2.881 2.881 0 0 0 .073 1.317 1.957 1.957 0 0 0 .623.874 2.006 2.006 0 0 0 .343.282 2.352 2.352 0 0 0 .426.219 2.936 2.936 0 0 0 .508.146 3.8 3.8 0 0 0 .556.064c-.037.159-.075.318-.106.477q-.069.35-.12.7-.052.354-.084.705-.034.355-.048.708a10.106 10.106 0 0 0-.998.71 10.46 10.46 0 0 0-.93.846 10.24 10.24 0 0 0-.84.976 9.597 9.597 0 0 0-.716 1.096 7.601 7.601 0 0 0-.849 2.24 4.87 4.87 0 0 0 .01 2.061 3.237 3.237 0 0 0 .907 1.62 4.003 4.003 0 0 0 .447.35l.276.178a3.211 3.211 0 0 0 .301.171 3.42 3.42 0 0 0 .33.144 3.681 3.681 0 0 0 .356.113q.185.048.383.08l.05.008.05.008.049.006.05.006q.091.01.184.017t.186.01h.023c.055.002.11.004.165.003q.095 0 .19-.004.078-.003.157-.009l.076-.006h.01l.01-.002.061-.005.158-.018q.08-.01.16-.023l.144-.024.08-.016.017-.003.049-.01.146-.031q.073-.016.146-.036.07-.017.14-.037t.139-.04h.001q.07-.02.139-.043l.14-.046.137-.049.138-.052.07-.028.016-.005.052-.021.137-.057.14-.062.138-.064q.07-.032.138-.066l.013-.007h.003l.003-.003.12-.06.143-.075q.072-.038.142-.079l.142-.081.06-.035.015-.01.066-.039.134-.082.132-.085.132-.088.103-.07c.138.14.275.281.421.418.222.207 2.207 1.8 2.222 1.812a9.476 9.476 0 0 0-.615 3.083 7.913 7.913 0 0 0 .471 2.954 6.394 6.394 0 0 0 1.585 2.438 5.75 5.75 0 0 0 1.437.992c-.048-.024-.097-.045-.143-.07l.24.126q.157.082.32.155.165.073.335.136.17.064.348.118.177.053.36.097l.066.015.065.014.065.014.065.013.095.016.085.014.078.014q.13.019.26.032l.012.001.046.004c.068.007.136.013.203.017.038.003.075.003.112.005l.092.004.059.002q.104.003.21.002l.067-.002.065-.002c.026 0 .052 0 .077-.002q.106-.004.21-.012l.057-.005.063-.006.091-.008q.096-.01.191-.023l.064-.01.052-.007.075-.011q.096-.016.19-.034c.03-.005.06-.012.089-.018l.046-.01.056-.01q.09-.02.18-.043l.129-.033.017-.004.01-.003.024-.006.18-.052.178-.055.006-.003.013-.004c.052-.017.104-.034.156-.053q.087-.03.173-.063l.042-.017.04-.015.091-.036.172-.072.081-.037.046-.02.045-.02.172-.082a8.29 8.29 0 0 0 .128-.065l.03-.015.012-.005.168-.09.174-.098.007-.004.024-.014.14-.083q.086-.052.17-.106l.03-.02.037-.024.101-.066q.091-.06.18-.124l.042-.03.042-.03.095-.069.175-.133.042-.034.017-.013.01-.009.104-.082q.098-.08.194-.163t.19-.168c.055-.05.11-.102.164-.154l.01-.01.012-.01q.092-.088.182-.179.116-.117.228-.239c.06-.065.12-.132.179-.199l.023-.026.02-.021q.108-.126.213-.255t.206-.262l.074-.104c.036-.048.07-.097.104-.145.142-.2.279-.404.407-.614l.04-.06.01-.02.02-.032a10.363 10.363 0 0 0 .442-.839c.034-.07.07-.138.101-.209.074-.165.142-.332.207-.502l.015-.035q.107-.28.197-.567c.021-.066.038-.134.057-.201l.053-.184c.068-.251.13-.504.18-.761l.002-.012.002-.013.002-.012.002-.012q.205-.035.41-.073t.408-.078q.205-.041.408-.086l.064-.014.017-.004.025-.006c.1-.022.202-.044.302-.068q.297-.07.593-.146c.103-.026.206-.055.309-.083.023-.006.047-.011.07-.018l.055-.016.156-.042q.295-.083.588-.173c.146-.045.29-.092.436-.14l.052-.015.027-.01.068-.022q.148-.049.295-.1t.293-.102q.146-.052.291-.106l.29-.11h.001a9.042 9.042 0 0 0 1.122 1.256 9.317 9.317 0 0 0 1.395 1.069 9.44 9.44 0 0 0 3.504 1.318l.08.012.079.012.08.011.079.01q.156.02.311.035l.15.012.06.004.1.008q.155.01.31.013t.307.003h.04l.031-.001.172-.004q.122-.004.243-.012t.24-.018l.09-.01.039-.003c.037-.004.074-.007.11-.012q.109-.012.216-.028t.214-.033q.1-.017.198-.036h.004l.002-.001.008-.002q.106-.02.21-.043.1-.022.199-.046t.196-.051l.11-.032.027-.007.057-.017q.096-.028.191-.06.094-.03.187-.062t.184-.067l.065-.026.026-.01.09-.036q.09-.036.18-.075l.179-.08q.089-.04.175-.085l.03-.015.016-.008.128-.065.17-.092.174-.1.149-.091.005-.003.004-.003.012-.007q.085-.053.168-.108t.164-.112q.088-.062.174-.126l.055-.043.026-.02.089-.068q.084-.066.165-.135t.161-.14c.033-.028.065-.058.097-.088l.03-.028.05-.046q.088-.083.172-.168.084-.085.165-.173l.077-.087.027-.03.054-.06q.1-.117.195-.237.088-.112.172-.227l.005-.007.002-.003.006-.007q.089-.124.172-.25.084-.128.162-.258l.018-.034c.024-.04.044-.082.067-.123.058-.103.118-.206.171-.313.02-.04.035-.08.053-.12.03-.061.057-.124.085-.187.026-.06.056-.12.08-.18.031-.077.056-.157.084-.235.022-.06.044-.12.064-.18.01-.03.023-.059.032-.089q.08-.255.14-.517l.053-.229-.01.035a7.07 7.07 0 0 0 .164-2.172 7.502 7.502 0 0 0-.327-1.678 7.989 7.989 0 0 0-.663-1.519 8.627 8.627 0 0 0-.931-1.335 9.172 9.172 0 0 0-1.054-1.049c.15-.243.298-.486.436-.732q.258-.46.49-.926.231-.463.441-.93.209-.463.4-.929l.07.003.07.002.068.001.07.001q.136.002.27 0l.096-.002.055-.001.119-.003q.134-.005.267-.014c.075-.004.15-.01.225-.017l.022-.001.017-.002.21-.02q.104-.011.207-.025.096-.013.19-.028h.008l.007-.002q.102-.015.203-.033l.184-.033q.09-.017.18-.037l.032-.008.008-.001.011-.003.129-.029q.09-.02.177-.043l.166-.044.101-.03.02-.005.044-.012.162-.05q.081-.025.16-.053.078-.026.155-.054l.03-.012.019-.006.104-.04q.076-.028.15-.059t.149-.062l.117-.051.013-.006.017-.008.145-.067q.072-.034.141-.07l.14-.073.048-.026.01-.005.01-.006.073-.04.14-.08q.07-.04.135-.083l.103-.067.012-.007.017-.01.14-.096q.07-.048.136-.097l.132-.1.002-.002.127-.101q.071-.059.14-.12c.04-.034.078-.069.115-.104l.01-.01.01-.008q.066-.061.129-.125t.123-.128l.064-.071.02-.02.015-.019.052-.059q.073-.085.141-.173c.026-.033.05-.067.074-.1l.028-.038.029-.04q.063-.09.12-.18l.068-.116.04-.069c.01-.018.023-.036.033-.055q.066-.12.123-.244l.022-.053.029-.07c.018-.042.037-.084.053-.127q.048-.125.086-.253l.094-.314c-.033.111-.076.22-.12.328a3.665 3.665 0 0 0 .198-2.137zm-8.908 15.314q0 .105-.004.21c-.001.048-.005.097-.008.146a4.953 4.953 0 0 1-.403 1.487 5.147 5.147 0 0 1-1.42 1.84 5.775 5.775 0 0 1-2.172 1.112 6.507 6.507 0 0 1-2.622.15 6.87 6.87 0 0 1-2.48-.858 6.644 6.644 0 0 1-1.848-1.581 5.997 5.997 0 0 1-.96-1.706 5.489 5.489 0 0 1-.125-.442l-.003-.013a5.28 5.28 0 0 1-.097-.578l-.001-.01a5.162 5.162 0 0 1-.03-.58v-.023a5.11 5.11 0 0 1 .038-.59c.003-.027.01-.053.014-.08a5.01 5.01 0 0 1 .109-.545c.016-.064.036-.126.055-.188q.06-.205.138-.401c.025-.062.049-.123.075-.183a4.93 4.93 0 0 1 .21-.417c.02-.036.038-.075.06-.111a5.008 5.008 0 0 1 .325-.48c.09-.117.182-.23.28-.339l.017-.017q.162-.177.34-.338l.01-.01q.182-.163.378-.31l.007-.005q.198-.148.41-.279l.005-.003q.214-.13.44-.243l.007-.004q.226-.111.464-.204l.007-.003q.238-.093.487-.166l.01-.003q.247-.072.506-.124l.013-.002q.257-.051.524-.08l.016-.003q.268-.029.545-.035h.006q.281-.007.57.012a6.807 6.807 0 0 1 4.126 1.745 6.261 6.261 0 0 1 1.38 1.797 5.471 5.471 0 0 1 .596 2.245q.005.105.005.21zm.014.16v-.017zm-2.36-26.582a2.716 2.716 0 0 1 .921.708 1.438 1.438 0 0 1 .376.942 1.586 1.586 0 0 1-.293.764 3.308 3.308 0 0 1-.94.926 5.498 5.498 0 0 1-1.421.676 6.83 6.83 0 0 1-1.724.308 6.12 6.12 0 0 1-1.662-.135 4.08 4.08 0 0 1-1.278-.513 2.415 2.415 0 0 1-.83-.765c-.08-.14-.668-1.175 1.021-2.363a5.842 5.842 0 0 1 1.461-.699l.005-.001q.173-.057.353-.104l.009-.003q.179-.047.365-.084l.011-.003q.188-.037.38-.065h.004q.196-.028.398-.045a6.349 6.349 0 0 1 1.543.054 4.627 4.627 0 0 1 1.3.402zm-9.882 25.866l-.002-.02zm.077.538l-.003-.015zm.131.528l-.002-.005-.002-.007zm-.23-1.622zm11.33-10.545a6.176 6.176 0 0 1-1.765-.918 4.18 4.18 0 0 1-1.133-1.264 2.9 2.9 0 0 1-.368-1.219 2.654 2.654 0 0 1 .043-.38c.008-.046.02-.09.03-.134a2.727 2.727 0 0 1 .084-.284c.016-.043.031-.087.05-.13a2.915 2.915 0 0 1 .145-.3c.015-.027.027-.055.043-.08a3.257 3.257 0 0 1 .244-.353c.068-.087.14-.171.218-.253l.013-.013q.128-.132.271-.256l.008-.007q.147-.125.308-.24l.005-.003q.164-.116.342-.22l.003-.002q.178-.105.37-.198l.007-.003q.19-.092.395-.172l.005-.002q.205-.08.42-.147l.01-.003q.214-.066.44-.119l.01-.003q.226-.052.461-.09l.014-.002q.237-.038.483-.06h.005q.25-.024.51-.03a7.652 7.652 0 0 1 2.015.22 6.729 6.729 0 0 1 1.775.71 4.877 4.877 0 0 1 1.348 1.136 3.202 3.202 0 0 1 .687 1.479q.022.135.031.268a2.628 2.628 0 0 1-.019.529c-.005.037-.014.073-.02.11a2.788 2.788 0 0 1-.127.339 3.536 3.536 0 0 1-1.085 1.315 5.47 5.47 0 0 1-1.786.883 7.314 7.314 0 0 1-2.254.285 7.63 7.63 0 0 1-2.236-.39zm1.52-12.82l-.003.01c.006-.027.009-.054.015-.08-.006.023-.007.047-.012.07zM29.457 1.79a.817.817 0 0 1 .156.306.89.89 0 0 1-.024.356 2.026 2.026 0 0 1-.458.865 3.938 3.938 0 0 1-.914.77 5.693 5.693 0 0 1-1.233.572 5.858 5.858 0 0 1-1.393.28 4.257 4.257 0 0 1-1.261-.08 2.327 2.327 0 0 1-.895-.395 1.068 1.068 0 0 1-.399-.481.339.339 0 0 1-.013-.059V3.92a1.167 1.167 0 0 1-.01-.192V3.72a1.3 1.3 0 0 1 .023-.2v-.004a1.533 1.533 0 0 1 .058-.212c.004-.01.01-.02.014-.032a1.85 1.85 0 0 1 .097-.216l.044-.076q.048-.084.105-.166l.055-.076c.046-.06.095-.12.147-.178l.043-.049.04-.039a3.679 3.679 0 0 1 .366-.332l.005-.005a4.62 4.62 0 0 1 .469-.322l.002-.001a5.414 5.414 0 0 1 .53-.28l.002-.001a5.87 5.87 0 0 1 .578-.23h.003a5.955 5.955 0 0 1 .614-.17l.004-.002a5.71 5.71 0 0 1 .639-.103 4.704 4.704 0 0 1 1.036.001 3.095 3.095 0 0 1 .852.219 1.8 1.8 0 0 1 .61.412 1.3 1.3 0 0 1 .108.131zm-17.02 5.007c.043-.076.09-.152.142-.227.018-.027.038-.054.058-.08q.064-.088.135-.173l.067-.08c.056-.062.115-.124.176-.185l.049-.05.044-.04a4.804 4.804 0 0 1 .407-.341l.006-.005a5.51 5.51 0 0 1 .493-.327l.002-.001a5.91 5.91 0 0 1 .537-.28l.002-.002a5.81 5.81 0 0 1 .566-.224h.002a5.346 5.346 0 0 1 .581-.16l.005-.002a4.655 4.655 0 0 1 .586-.088 3.522 3.522 0 0 1 .722.01 2.323 2.323 0 0 1 .596.15 1.514 1.514 0 0 1 .45.277 1.172 1.172 0 0 1 .163.183.494.494 0 0 1 .056.1.463.463 0 0 1 .025.099 1.501 1.501 0 0 1-.127.84 3.049 3.049 0 0 1-.625.904 5.054 5.054 0 0 1-.998.786 5.945 5.945 0 0 1-1.223.566 4.922 4.922 0 0 1-1.286.25 2.906 2.906 0 0 1-1.08-.13 1.454 1.454 0 0 1-.674-.443 1.07 1.07 0 0 1-.08-.207v-.003a1.146 1.146 0 0 1-.024-.16V7.75a1.285 1.285 0 0 1-.002-.167v-.005a1.452 1.452 0 0 1 .022-.176 1.679 1.679 0 0 1 .044-.181l.003-.01q.027-.088.065-.18l.006-.012a2.36 2.36 0 0 1 .09-.188l.02-.034zm-2.323 7.592a4.776 4.776 0 0 1-.842 1.155 6.43 6.43 0 0 1-1.203.966 6.189 6.189 0 0 1-1.387.65 4.237 4.237 0 0 1-1.38.216 2.218 2.218 0 0 1-1.077-.274 1.496 1.496 0 0 1-.207-.148 1.36 1.36 0 0 1-.092-.125l-.003-.005a1.375 1.375 0 0 1-.115-.252l-.002-.005a1.522 1.522 0 0 1-.065-.276v-.003a1.773 1.773 0 0 1-.015-.3v-.005a2.133 2.133 0 0 1 .036-.318v-.002a2.607 2.607 0 0 1 .088-.334l.002-.006a3.192 3.192 0 0 1 .137-.342l.004-.007a3.868 3.868 0 0 1 .19-.355l.028-.043c.06-.098.126-.194.195-.289l.077-.1q.085-.111.177-.218l.087-.1c.071-.078.145-.155.222-.23.02-.02.039-.041.06-.06l.054-.05a6.282 6.282 0 0 1 .49-.417l.007-.005a6.557 6.557 0 0 1 .575-.39l.003-.001a6.38 6.38 0 0 1 .608-.324h.002a5.775 5.775 0 0 1 .625-.248l.005-.001q.154-.05.308-.09l.008-.003q.154-.04.306-.068l.01-.001q.153-.029.305-.045h.003q.154-.017.305-.02a2.947 2.947 0 0 1 .558.036 2.137 2.137 0 0 1 .473.134 1.626 1.626 0 0 1 .384.224.914.914 0 0 1 .194.192 1.295 1.295 0 0 1 .174.775 2.673 2.673 0 0 1-.312 1.112zM8.707 27.6a7.573 7.573 0 0 1-1.514 1.364 6.338 6.338 0 0 1-1.74.843 4.052 4.052 0 0 1-1.715.158 2.603 2.603 0 0 1-.994-.346 5.257 5.257 0 0 1-.239-.228 18.007 18.007 0 0 1-.192-.247 4.388 4.388 0 0 1-.132-.226 2.426 2.426 0 0 1-.103-.229l-.004-.011q-.046-.12-.081-.248l-.001-.005a5.3 5.3 0 0 1-.06-.274q-.022-.134-.033-.273v-.008q-.01-.139-.01-.283v-.01q.002-.143.016-.291v-.005c.009-.1.04-.31.041-.314q.026-.151.063-.307l.001-.005q.038-.154.087-.311l.004-.012q.05-.156.11-.314l.003-.005c.04-.102.139-.326.143-.336.049-.105.101-.21.158-.316.011-.022.197-.343.285-.478.031-.049.243-.352.32-.452l.109-.14c.088-.11.325-.38.351-.408q.181-.194.374-.373c.098-.09.31-.273.316-.278q.165-.137.337-.264l.01-.007q.174-.127.353-.243l.006-.004q.18-.117.365-.22l.004-.002q.185-.103.373-.193l.007-.003q.186-.088.374-.162l.007-.004q.189-.073.378-.132l.007-.003q.188-.058.376-.1l.01-.002q.186-.042.372-.067l.012-.002q.187-.025.371-.033h.004a3.614 3.614 0 0 1 .372.005 3.087 3.087 0 0 1 .524.077 2.596 2.596 0 0 1 .466.16 2.304 2.304 0 0 1 .406.235 2.178 2.178 0 0 1 .252.227 2.263 2.263 0 0 1 .24.382 2.88 2.88 0 0 1 .267 1.35 4.644 4.644 0 0 1-.396 1.677 6.745 6.745 0 0 1-1.06 1.696zm21.09-23.218l.004-.005.014-.01q.058-.051.113-.102t.109-.104l.006-.006.027-.028c.05-.049.097-.098.142-.147l.036-.04.059-.07.065-.075c.023-.028.043-.057.064-.085.017-.023.035-.045.051-.068l.027-.036q.067-.094.125-.19.298.037.59.083.294.046.584.1.29.056.576.12c.11.025.22.053.33.08-.046.053-.099.104-.141.16a3.393 3.393 0 0 0-.275.409 2.797 2.797 0 0 0-.2.43 2.108 2.108 0 0 0-.116.45 2.43 2.43 0 0 0 .042.942 2.471 2.471 0 0 0 .503 1.102 3.66 3.66 0 0 0 1.108.894 6 6 0 0 0 1.639.585 9.578 9.578 0 0 0 2.062.162 6.578 6.578 0 0 0 2.997-.625q.17.207.33.421.16.216.31.44.151.224.292.457c.042.07.081.143.122.214a8.48 8.48 0 0 0-1.722.624 6.57 6.57 0 0 0-1.5 1.01 4.767 4.767 0 0 0-1.027 1.308 3.773 3.773 0 0 0-.433 1.565 4.375 4.375 0 0 0 .004.453l.021.287a4 4 0 0 0 .43 1.517 5.314 5.314 0 0 0 1.038 1.393 7.323 7.323 0 0 0 1.596 1.17 9.274 9.274 0 0 0 1.988.8c-.062.153-.123.307-.192.46q-.16.358-.341.713-.182.358-.384.71-.203.356-.426.706-.429-.21-.88-.376a9.469 9.469 0 0 0-1.85-.482 9.396 9.396 0 0 0-.964-.098 8.862 8.862 0 0 0-2.953.343 8.029 8.029 0 0 0-2.474 1.217 7.264 7.264 0 0 0-1.846 1.963 6.886 6.886 0 0 0-.991 2.64 7.069 7.069 0 0 0-.083.932 7.18 7.18 0 0 0 .04.933 7.407 7.407 0 0 0 .162.928 7.75 7.75 0 0 0 .28.914q-.49.178-.985.337-.495.159-.996.297-.5.138-1.004.255c-.302.07-.606.131-.91.19l-.006-.046-.012-.087q-.012-.087-.026-.172t-.03-.17a7.254 7.254 0 0 0-.027-.141v-.005l-.002-.003-.004-.02q-.017-.083-.036-.165l-.039-.16q-.02-.08-.042-.156l-.045-.155a6.948 6.948 0 0 0-.04-.125v-.005l-.002-.003-.006-.02-.051-.151q-.026-.075-.055-.149l-.057-.147-.06-.144a6.493 6.493 0 0 0-.05-.112l-.002-.006-.002-.004-.011-.025-.068-.144-.07-.141-.074-.139-.031-.055-.031-.055-.032-.055-.031-.054-.128-.214c.015.025.026.054.041.08a6.27 6.27 0 0 0-.883-1.19 5.804 5.804 0 0 0-1.67-1.223 5.97 5.97 0 0 0-2.035-.565 6.795 6.795 0 0 0-2.162.144 8.053 8.053 0 0 0-2.056.783 9.377 9.377 0 0 0-1.867 1.34 10.12 10.12 0 0 0-1.574 1.845q-.33-.194-.642-.401-.31-.206-.6-.425-.29-.217-.561-.446c-.1-.084-.193-.172-.29-.258l-.01-.01q.307-.323.584-.672l.002-.003.002-.002c.058-.074.108-.152.164-.227.119-.16.24-.317.349-.483l.003-.005.004-.005c.062-.095.112-.194.17-.29.09-.149.184-.294.264-.446l.004-.009.005-.008c.055-.105.097-.214.147-.32.068-.144.205-.442.206-.444l.157-.425a6.83 6.83 0 0 0 .32-2.17 3.578 3.578 0 0 0-3.516-3.495 5.105 5.105 0 0 0-.627.008 5.865 5.865 0 0 0-.636.083q-.319.059-.64.151c-.14.04-.279.092-.418.141.004-.086.005-.173.011-.26l.002-.022c.01-.169.026-.338.045-.507l.009-.082q.028-.242.065-.485l.013-.079c.028-.17.058-.342.094-.514l.043-.011.13-.036.113-.033.108-.034h.002l.002-.001.111-.037.112-.039.11-.04.052-.02.015-.005.043-.017.11-.043q.055-.022.108-.046l.11-.047.012-.006.008-.003.09-.04.11-.052.11-.053.066-.034.009-.003.003-.002.034-.018q.057-.028.113-.058t.112-.06l.11-.062.12-.07.118-.07.117-.072.025-.016.008-.005.083-.053.13-.087.13-.089.127-.09.126-.094.105-.08.008-.006.006-.006.039-.029q.078-.061.154-.124t.15-.128q.075-.064.148-.13c.03-.027.055-.056.084-.083.063-.059.123-.12.184-.18.072-.072.148-.14.217-.214.05-.054.094-.112.143-.167.032-.036.07-.07.1-.106.05-.058.095-.118.141-.177.015-.018.032-.035.046-.053l.021-.03q.172-.224.319-.454c.008-.013.019-.025.027-.038.012-.02.02-.039.032-.058a5.48 5.48 0 0 0 .253-.455l.196-.455a2.584 2.584 0 0 0-.59-2.871 2.483 2.483 0 0 0-.607-.363c.087-.095.172-.19.26-.283q.19-.2.383-.395.194-.194.393-.384.198-.19.401-.374a2.572 2.572 0 0 0 .365.155 3.18 3.18 0 0 0 .422.111 3.943 3.943 0 0 0 .477.062c.169.011.664 0 .676-.001l.144-.012.145-.015h.008l.009-.002.129-.016.146-.022.178-.032.056-.01.235-.052.107-.026.04-.01.013-.004.054-.014.107-.03.106-.031.102-.031.071-.023.004-.002.004-.001.022-.007.1-.034.1-.036.099-.036.098-.038.02-.008.077-.03.097-.04.098-.043.173-.078.116-.055a15.656 15.656 0 0 0 .293-.15l.008-.004.005-.002a8.94 8.94 0 0 0 .083-.046l.104-.058.102-.06.101-.06.012-.008.002-.001.004-.003.082-.05.111-.072a21.905 21.905 0 0 0 .323-.225l.133-.1.081-.064.021-.017.028-.022q.063-.051.125-.104t.122-.106l.02-.02a5.94 5.94 0 0 0 .335-.325l.019-.021.015-.015c.019-.02.033-.041.051-.06.085-.095.165-.19.24-.286l.042-.05c.017-.023.03-.047.046-.07.063-.086.12-.174.174-.262.016-.025.036-.05.05-.076.009-.013.013-.027.021-.041a3.273 3.273 0 0 0 .165-.335l.018-.036.001-.003.001-.004.002-.003.001-.003q.022-.054.04-.107t.035-.105q.016-.052.029-.103l.017-.075.002-.005v-.004l.005-.017.015-.08.012-.08.009-.078.005-.077v-.029l.001-.003v-.003l.001-.032a1.811 1.811 0 0 0-.008-.198l-.008-.06-.007-.045V5.26l-.002-.012a1.566 1.566 0 0 0-.026-.116l-.012-.046a3.258 3.258 0 0 0-.03-.09l-.016-.045-.02-.049q.26-.1.522-.194l.075-.027q.246-.087.495-.17l.072-.024q.26-.085.522-.166l.021-.006q.257-.078.516-.151a4.456 4.456 0 0 0 .137.44 1.944 1.944 0 0 0 .42.649 2.523 2.523 0 0 0 .75.496 4.085 4.085 0 0 0 1.051.296 6.156 6.156 0 0 0 1.315.047l.166-.013q.08-.007.159-.016l.074-.009.03-.003.055-.007.158-.022q.08-.012.158-.026l.02-.004.014-.002.224-.043a18.3 18.3 0 0 0 .168-.037l.018-.004.07-.016.113-.028.113-.03a6.82 6.82 0 0 0 .093-.026h.003l.002-.001.014-.004.112-.033.106-.033a17.543 17.543 0 0 0 .314-.106l.1-.038.101-.038.028-.011.006-.002.066-.027.099-.04.099-.044.098-.043.097-.045.096-.046.098-.05.07-.035.002-.001.005-.003.02-.01.096-.052.095-.052.1-.058.019-.01.011-.007.07-.042.097-.06.138-.09.019-.012a12.25 12.25 0 0 0 .247-.174l.035-.027.063-.047.123-.098m-15.501 35.07c-.062-.044-.124-.086-.183-.132-.034-.027-.065-.056-.098-.083a4.156 4.156 0 0 1-.202-.179c-.036-.034-.07-.07-.105-.106a4.325 4.325 0 0 1-.471-.57l-.02-.029a4.598 4.598 0 0 1-.21-.34l-.004-.006q-.101-.183-.187-.376l-.004-.007q-.086-.193-.156-.395l-.004-.01q-.068-.2-.121-.406l-.004-.015q-.052-.204-.089-.415l-.002-.012a5.853 5.853 0 0 1-.082-.877v-.013q-.005-.221.008-.446v-.018q.013-.22.042-.442l.001-.013q.029-.223.074-.449l.003-.015q.044-.22.105-.442l.01-.038c.042-.15.088-.3.14-.45.01-.028.023-.055.033-.083q.105-.289.232-.563c.03-.065.063-.13.095-.194q.105-.21.221-.412c.037-.063.073-.126.111-.187.091-.146.187-.288.287-.426.027-.038.052-.077.08-.114a7.201 7.201 0 0 1 .732-.833l.02-.018q.184-.179.379-.341l.011-.01q.199-.164.406-.312l.006-.004q.21-.148.427-.278l.003-.002q.218-.13.443-.24l.007-.004q.223-.11.452-.2l.008-.002q.229-.09.463-.158l.009-.002q.232-.068.468-.114l.012-.002q.235-.045.473-.068l.014-.001q.24-.022.48-.021h.005a4.659 4.659 0 0 1 .489.03 4.38 4.38 0 0 1 .905.2 4.143 4.143 0 0 1 1.523.916 4.376 4.376 0 0 1 .543.626 5.059 5.059 0 0 1 .717 1.897 6.25 6.25 0 0 1-.073 2.353 7.326 7.326 0 0 1-2.666 4.217 6.206 6.206 0 0 1-2.148 1.084 4.854 4.854 0 0 1-2.285.081 4.201 4.201 0 0 1-1.323-.532zm-.516 2.806c.066.03.134.057.201.084-.057-.023-.115-.045-.17-.07zm.346.143c.078.03.157.056.237.082-.072-.024-.145-.047-.216-.073zm.372.127l-.012-.004q.184.056.375.102-.185-.044-.363-.098z" id="_Группа_" data-name="&lt;Группа&gt;"/><path d="M68.246 15.329a3.799 3.799 0 0 0-1.293-1.13 3.957 3.957 0 0 0-1.908-.426 4.087 4.087 0 0 0-1.161.175 3.375 3.375 0 0 0-1.074.537 2.756 2.756 0 0 0-.779.91 2.687 2.687 0 0 0-.295 1.293 2.389 2.389 0 0 0 .284 1.227 2.696 2.696 0 0 0 .754.822 4.365 4.365 0 0 0 1.071.56q.601.219 1.257.438.809.262 1.629.57a5.838 5.838 0 0 1 1.475.8 3.873 3.873 0 0 1 1.071 1.249 3.958 3.958 0 0 1 .416 1.918 4.265 4.265 0 0 1-.443 2.006 4.2 4.2 0 0 1-1.152 1.392 4.786 4.786 0 0 1-1.617.81 6.571 6.571 0 0 1-1.83.264 7.044 7.044 0 0 1-1.403-.143 6.353 6.353 0 0 1-1.337-.427 5.44 5.44 0 0 1-1.184-.723 5.224 5.224 0 0 1-.964-1.01l1.36-1.007a4.151 4.151 0 0 0 1.413 1.392 3.997 3.997 0 0 0 2.137.559 4.141 4.141 0 0 0 1.206-.186 3.388 3.388 0 0 0 1.106-.57 3.152 3.152 0 0 0 .812-.943 2.924 2.924 0 0 0 0-2.652 2.828 2.828 0 0 0-.844-.899 5.172 5.172 0 0 0-1.206-.603q-.68-.241-1.425-.482-.767-.241-1.512-.548a5.102 5.102 0 0 1-1.337-.8 3.74 3.74 0 0 1-.954-1.217 3.947 3.947 0 0 1-.362-1.775 3.919 3.919 0 0 1 .45-1.93 4.066 4.066 0 0 1 1.172-1.337 4.91 4.91 0 0 1 1.6-.766 6.497 6.497 0 0 1 1.732-.242 5.969 5.969 0 0 1 2.696.56 4.622 4.622 0 0 1 1.688 1.326zM83.195 23.22a5.594 5.594 0 0 1-.405 2.148 5.06 5.06 0 0 1-2.86 2.839 5.886 5.886 0 0 1-2.215.406 5.82 5.82 0 0 1-2.192-.406 5.06 5.06 0 0 1-2.86-2.84 5.89 5.89 0 0 1 0-4.295 5.057 5.057 0 0 1 2.86-2.839 5.82 5.82 0 0 1 2.192-.406 5.886 5.886 0 0 1 2.214.406 5.057 5.057 0 0 1 2.86 2.839 5.598 5.598 0 0 1 .406 2.148zm-1.578 0a4.695 4.695 0 0 0-.274-1.611 3.968 3.968 0 0 0-.778-1.316 3.694 3.694 0 0 0-1.228-.887 3.882 3.882 0 0 0-1.622-.329 3.806 3.806 0 0 0-1.611.329 3.72 3.72 0 0 0-1.216.887 3.94 3.94 0 0 0-.779 1.316 4.874 4.874 0 0 0 0 3.222 3.94 3.94 0 0 0 .779 1.316 3.586 3.586 0 0 0 1.216.876 3.913 3.913 0 0 0 1.611.318 3.992 3.992 0 0 0 1.622-.318 3.564 3.564 0 0 0 1.228-.876 3.968 3.968 0 0 0 .778-1.316 4.699 4.699 0 0 0 .274-1.611zM90.735 19.34h-2.41v9.01h-1.491v-9.01h-2.148v-1.25h2.148v-2.805a4.136 4.136 0 0 1 .855-2.762 3.258 3.258 0 0 1 2.63-1.008c.19 0 .395.01.614.032a3.198 3.198 0 0 1 .614.12l-.264 1.316q-.24-.066-.482-.11a3.114 3.114 0 0 0-.548-.043 2.121 2.121 0 0 0-.975.197 1.411 1.411 0 0 0-.592.559 2.45 2.45 0 0 0-.285.844 6.54 6.54 0 0 0-.077 1.03v2.63h2.411zM98.496 19.34h-2.893v5.985a3.393 3.393 0 0 0 .11.942 1.331 1.331 0 0 0 .317.58 1.081 1.081 0 0 0 .494.286 2.34 2.34 0 0 0 .613.076 2.574 2.574 0 0 0 .647-.087 3.274 3.274 0 0 0 .647-.241l.065 1.293a4.407 4.407 0 0 1-.822.23 5.263 5.263 0 0 1-.931.077 3.8 3.8 0 0 1-.877-.11 2.217 2.217 0 0 1-.855-.416 2.278 2.278 0 0 1-.646-.833 3.215 3.215 0 0 1-.253-1.381V19.34h-2.126v-1.25h2.126v-2.893h1.49v2.894h2.894zM110.158 22.913v.329a3.427 3.427 0 0 1-.022.373h-8.505a3.997 3.997 0 0 0 .307 1.446 3.643 3.643 0 0 0 .789 1.184 3.804 3.804 0 0 0 1.184.8 3.918 3.918 0 0 0 3.474-.241 4.007 4.007 0 0 0 1.282-1.239l1.118.877a5.552 5.552 0 0 1-2.028 1.666 5.672 5.672 0 0 1-2.378.505 5.458 5.458 0 0 1-2.115-.406 4.956 4.956 0 0 1-1.677-1.13 5.334 5.334 0 0 1-1.107-1.71 5.584 5.584 0 0 1-.405-2.147 5.738 5.738 0 0 1 .394-2.148 5.207 5.207 0 0 1 1.096-1.71 5.049 5.049 0 0 1 1.644-1.129 5.104 5.104 0 0 1 2.039-.406 5.23 5.23 0 0 1 2.126.406 4.392 4.392 0 0 1 1.535 1.096 4.713 4.713 0 0 1 .93 1.611 6 6 0 0 1 .319 1.973zm-1.513-.482a3.697 3.697 0 0 0-.931-2.4 3.161 3.161 0 0 0-2.466-.954 3.454 3.454 0 0 0-1.381.274 3.655 3.655 0 0 0-1.118.746 3.703 3.703 0 0 0-.768 1.074 3.457 3.457 0 0 0-.328 1.26zM114.695 18.09q.044.417.066.921c.014.337.022.614.022.833h.044a3.372 3.372 0 0 1 1.424-1.457 4.158 4.158 0 0 1 2.083-.56 3.605 3.605 0 0 1 2.926 1.162 4.616 4.616 0 0 1 .976 3.069v6.291h-1.49v-5.677a7.507 7.507 0 0 0-.132-1.469 3.075 3.075 0 0 0-.45-1.128 2.15 2.15 0 0 0-.855-.735 3.062 3.062 0 0 0-1.348-.263 2.88 2.88 0 0 0-1.15.24 2.826 2.826 0 0 0-.998.736 3.662 3.662 0 0 0-.701 1.249 5.458 5.458 0 0 0-.263 1.787v5.26h-1.491v-8q0-.417-.022-1.074-.022-.659-.065-1.184zM141.02 14.145a.973.973 0 0 1-.328.756 1.032 1.032 0 0 1-1.447 0 1.034 1.034 0 0 1 0-1.512 1.032 1.032 0 0 1 1.447 0 .972.972 0 0 1 .329.756zm-.306 14.204h-1.49V18.091h1.49z"/><path class="cls-1" d="M130.822 27.483a5.006 5.006 0 1 1 5.006-5.006 5.011 5.011 0 0 1-5.006 5.006zm0-8.368a3.362 3.362 0 1 0 3.362 3.362 3.365 3.365 0 0 0-3.362-3.362z"/><path class="cls-1" d="M130.822 37.684a5.006 5.006 0 1 1 5.006-5.005 5.011 5.011 0 0 1-5.006 5.005zm0-8.367a3.362 3.362 0 1 0 3.362 3.362 3.365 3.365 0 0 0-3.362-3.362z"/><path class="cls-1" d="M127.08 30.642a5.008 5.008 0 0 1-.22-6.388l1.3 1.007a3.363 3.363 0 0 0 .15 4.288zM133.698 19.436l-1.58-.45a3.25 3.25 0 0 1 1.869-2.23 2.875 2.875 0 0 1 1-.202l.037 1.644a1.223 1.223 0 0 0-.428.086 1.708 1.708 0 0 0-.898 1.152z"/></svg>